{
  "asset": {
    "version": "2.0",
    "generator": "THREE.GLTFExporter"
  },
  "scenes": [
    {
      "nodes": [
        0
      ]
    }
  ],
  "scene": 0,
  "nodes": [
    {
      "children": [
        3,
        4,
        5,
        6,
        7
      ],
      "matrix": [
        0.01,
        0,
        0,
        0,
        0,
        0.01,
        0,
        0,
        0,
        0,
        0.01,
        0,
        0,
        0,
        0,
        1
      ]
    },
    {
      "matrix": [
        1,
        0,
        0,
        0,
        0,
        1,
        0,
        0,
        0,
        0,
        1,
        0,
        34.33935546875003,
        0,
        0,
        1
      ],
      "name": "Rectangle 5",
      "mesh": 0
    },
    {
      "name": "Rectangle 4",
      "mesh": 1
    },
    {
      "matrix": [
        1,
        0,
        0,
        0,
        0,
        1,
        0,
        0,
        0,
        0,
        1,
        0,
        -2.5,
        394,
        1,
        1
      ],
      "name": "Notch",
      "children": [
        1,
        2
      ]
    },
    {
      "matrix": [
        1,
        0,
        0,
        0,
        0,
        1,
        0,
        0,
        0,
        0,
        1,
        0,
        0.09374999999997158,
        2.058656696017408,
        -51.08400273908683,
        1
      ],
      "name": "Rectangle 2",
      "mesh": 2
    },
    {
      "matrix": [
        0.5883484054145521,
        0.39223227027636803,
        -0.7071067811865475,
        0,
        -0.554700196225229,
        0.8320502943378437,
        0,
        0,
        0.588348405414552,
        0.392232270276368,
        0.7071067811865476,
        0,
        0,
        0,
        0,
        1
      ],
      "name": "Directional Light",
      "extensions": {
        "KHR_lights_punctual": {
          "light": 0
        }
      }
    },
    {
      "matrix": [
        0.5164204393330971,
        -5.551115123125783e-17,
        -0.8563351737719354,
        0,
        -0.5661475461210839,
        0.7502727321402811,
        -0.34142024460748216,
        0,
        0.6424849304536924,
        0.6611284500055628,
        0.3874561739515271,
        0,
        557.0489868647225,
        696.646986165804,
        367.14157013711804,
        1
      ],
      "camera": 0
    },
    {
      "matrix": [
        1,
        0,
        0,
        0,
        0,
        1,
        0,
        0,
        0,
        0,
        1,
        0,
        0,
        1,
        0,
        1
      ],
      "name": "Default Ambient Light"
    }
  ],
  "bufferViews": [
    {
      "buffer": 0,
      "byteOffset": 0,
      "byteLength": 1968,
      "target": 34962,
      "byteStride": 12
    },
    {
      "buffer": 0,
      "byteOffset": 1968,
      "byteLength": 1968,
      "target": 34962,
      "byteStride": 12
    },
    {
      "buffer": 0,
      "byteOffset": 3936,
      "byteLength": 1312,
      "target": 34962,
      "byteStride": 8
    },
    {
      "buffer": 0,
      "byteOffset": 5248,
      "byteLength": 1944,
      "target": 34963
    },
    {
      "buffer": 0,
      "byteOffset": 7192,
      "byteLength": 1968,
      "target": 34962,
      "byteStride": 12
    },
    {
      "buffer": 0,
      "byteOffset": 9160,
      "byteLength": 1968,
      "target": 34962,
      "byteStride": 12
    },
    {
      "buffer": 0,
      "byteOffset": 11128,
      "byteLength": 1312,
      "target": 34962,
      "byteStride": 8
    },
    {
      "buffer": 0,
      "byteOffset": 12440,
      "byteLength": 1944,
      "target": 34963
    },
    {
      "buffer": 0,
      "byteOffset": 14384,
      "byteLength": 47232,
      "target": 34962,
      "byteStride": 12
    },
    {
      "buffer": 0,
      "byteOffset": 61616,
      "byteLength": 47232,
      "target": 34962,
      "byteStride": 12
    },
    {
      "buffer": 0,
      "byteOffset": 108848,
      "byteLength": 31488,
      "target": 34962,
      "byteStride": 8
    },
    {
      "buffer": 0,
      "byteOffset": 140336,
      "byteLength": 86544,
      "target": 34963
    }
  ],
  "buffers": [
    {
      "byteLength": 226880,
      "uri": "data:application/octet-stream;base64,"
    }
  ],
  "accessors": [
    {
      "bufferView": 0,
      "componentType": 5126,
      "count": 164,
      "max": [
        5,
        5,
        0
      ],
      "min": [
        -5,
        -5,
        0
      ],
      "type": "VEC3"
    },
    {
      "bufferView": 1,
      "componentType": 5126,
      "count": 164,
      "max": [
        0,
        0,
        1
      ],
      "min": [
        0,
        0,
        1
      ],
      "type": "VEC3"
    },
    {
      "bufferView": 2,
      "componentType": 5126,
      "count": 164,
      "max": [
        1,
        1
      ],
      "min": [
        0,
        0
      ],
      "type": "VEC2"
    },
    {
      "bufferView": 3,
      "componentType": 5125,
      "count": 486,
      "max": [
        163
      ],
      "min": [
        0
      ],
      "type": "SCALAR"
    },
    {
      "bufferView": 4,
      "componentType": 5126,
      "count": 164,
      "max": [
        49.5,
        18,
        0
      ],
      "min": [
        -49.5,
        -18,
        0
      ],
      "type": "VEC3"
    },
    {
      "bufferView": 5,
      "componentType": 5126,
      "count": 164,
      "max": [
        0,
        0,
        1
      ],
      "min": [
        0,
        0,
        1
      ],
      "type": "VEC3"
    },
    {
      "bufferView": 6,
      "componentType": 5126,
      "count": 164,
      "max": [
        1,
        1
      ],
      "min": [
        0,
        0
      ],
      "type": "VEC2"
    },
    {
      "bufferView": 7,
      "componentType": 5125,
      "count": 486,
      "max": [
        163
      ],
      "min": [
        0
      ],
      "type": "SCALAR"
    },
    {
      "bufferView": 8,
      "componentType": 5126,
      "count": 3936,
      "max": [
        212.422607421875,
        447.05035400390625,
        50
      ],
      "min": [
        -212.422607421875,
        -447.05035400390625,
        0
      ],
      "type": "VEC3"
    },
    {
      "bufferView": 9,
      "componentType": 5126,
      "count": 3936,
      "max": [
        1,
        1,
        1
      ],
      "min": [
        -1,
        -1,
        -1
      ],
      "type": "VEC3"
    },
    {
      "bufferView": 10,
      "componentType": 5126,
      "count": 3936,
      "max": [
        1,
        1
      ],
      "min": [
        0,
        0
      ],
      "type": "VEC2"
    },
    {
      "bufferView": 11,
      "componentType": 5125,
      "count": 21636,
      "max": [
        3935
      ],
      "min": [
        0
      ],
      "type": "SCALAR"
    }
  ],
  "meshes": [
    {
      "primitives": [
        {
          "mode": 4,
          "attributes": {
            "POSITION": 0,
            "NORMAL": 1,
            "TEXCOORD_0": 2
          },
          "extras": {
            "shape": {
              "points": [
                -5,
                5,
                -5,
                5,
                -5,
                5,
                5,
                5,
                5,
                5,
                5,
                5,
                5,
                5,
                5,
                -5,
                5,
                -5,
                5,
                -5,
                5,
                -5,
                -5,
                -5,
                -5,
                -5,
                -5,
                5
              ],
              "shapeHoles": [],
              "isClosed": true,
              "roundness": 5
            },
            "parameters": {
              "width": 10,
              "depth": 0,
              "cornerRadius": [
                100,
                100,
                100,
                100
              ],
              "cornerType": 0,
              "extrudeBevelSize": 0,
              "extrudeBevelSegments": 1,
              "height": 10,
              "type": "RectangleGeometry"
            },
            "ui": {
              "enabledIndieCorners": false
            },
            "type": "RectangleGeometry"
          },
          "indices": 3
        }
      ]
    },
    {
      "primitives": [
        {
          "mode": 4,
          "attributes": {
            "POSITION": 4,
            "NORMAL": 5,
            "TEXCOORD_0": 6
          },
          "extras": {
            "shape": {
              "points": [
                -49.5,
                18,
                -49.5,
                18,
                -49.5,
                18,
                18,
                49.5,
                18,
                49.5,
                18,
                49.5,
                18,
                18,
                49.5,
                -18,
                49.5,
                -18,
                49.5,
                -18,
                18,
                -49.5,
                -18,
                -49.5,
                -18,
                -49.5,
                -18,
                18
              ],
              "shapeHoles": [],
              "isClosed": true,
              "roundness": 18
            },
            "parameters": {
              "width": 99,
              "depth": 0,
              "cornerRadius": [
                100,
                100,
                100,
                100
              ],
              "cornerType": 0,
              "extrudeBevelSize": 0,
              "extrudeBevelSegments": 1,
              "height": 36,
              "type": "RectangleGeometry"
            },
            "ui": {
              "enabledIndieCorners": false
            },
            "type": "RectangleGeometry"
          },
          "indices": 7
        }
      ]
    },
    {
      "primitives": [
        {
          "mode": 4,
          "attributes": {
            "POSITION": 8,
            "NORMAL": 9,
            "TEXCOORD_0": 10
          },
          "extras": {
            "shape": {
              "points": [
                -212.42260527922252,
                447.0503514186232,
                -212.42260527922252,
                447.0503514186232,
                -212.42260527922252,
                447.0503514186232,
                90,
                212.42260527922252,
                447.0503514186232,
                212.42260527922252,
                447.0503514186232,
                212.42260527922252,
                447.0503514186232,
                90,
                212.42260527922252,
                -447.0503514186232,
                212.42260527922252,
                -447.0503514186232,
                212.42260527922252,
                -447.0503514186232,
                90,
                -212.42260527922252,
                -447.0503514186232,
                -212.42260527922252,
                -447.0503514186232,
                -212.42260527922252,
                -447.0503514186232,
                90
              ],
              "shapeHoles": [],
              "isClosed": true,
              "roundness": 90
            },
            "parameters": {
              "width": 424.84521055844505,
              "depth": 50,
              "cornerRadius": [
                90,
                90,
                90,
                90
              ],
              "cornerType": 1,
              "extrudeBevelSize": 40,
              "extrudeBevelSegments": 10,
              "height": 894.1007028372464,
              "type": "RectangleGeometry"
            },
            "ui": {
              "enabledIndieCorners": false
            },
            "type": "RectangleGeometry"
          },
          "indices": 11
        }
      ]
    }
  ],
  "extensions": {
    "KHR_lights_punctual": {
      "lights": [
        {
          "name": "Directional Light",
          "color": [
            1,
            1,
            1
          ],
          "intensity": 0.7,
          "type": "directional"
        }
      ]
    }
  },
  "cameras": [
    {
      "type": "perspective",
      "perspective": {
        "aspectRatio": 1.8858195211786373,
        "yfov": 0.7853981633974483,
        "zfar": 100000,
        "znear": 70
      }
    }
  ],
  "extensionsUsed": [
    "KHR_lights_punctual"
  ]
}